<svg width="80" height="80" viewBox="0 0 80 80" fill="none" xmlns="http://www.w3.org/2000/svg">
<path d="M59.5719 20.4281C57.6998 18.5565 55.162 17.5034 52.5148 17.4999C49.8676 17.4964 47.327 18.5427 45.45 20.4094L41.8094 24.225C41.3438 24.6602 40.7295 24.9011 40.0922 24.8985C39.4549 24.896 38.8426 24.6501 38.3805 24.2111C37.9184 23.7722 37.6414 23.1734 37.6061 22.537C37.5708 21.9007 37.7799 21.2748 38.1906 20.7875L41.8531 16.9469C41.8659 16.9326 41.8794 16.919 41.8937 16.9062C44.7145 14.131 48.5176 12.5829 52.4747 12.599C56.4318 12.6151 60.2221 14.1942 63.0202 16.9923C65.8183 19.7904 67.3974 23.5807 67.4135 27.5378C67.4296 31.4949 65.8815 35.298 63.1063 38.1188C63.0935 38.1331 63.0799 38.1466 63.0656 38.1594L59.225 41.8219C58.7377 42.2326 58.1119 42.4417 57.4755 42.4064C56.8391 42.3711 56.2403 42.0941 55.8014 41.632C55.3624 41.1699 55.1165 40.5576 55.114 39.9203C55.1114 39.283 55.3523 38.6687 55.7875 38.2031L59.6031 34.5625C61.472 32.6833 62.5184 30.1391 62.5126 27.4888C62.5067 24.8386 61.449 22.299 59.5719 20.4281ZM38.1906 55.775L34.55 59.5906C32.6656 61.4207 30.1367 62.4359 27.51 62.4167C24.8832 62.3975 22.3694 61.3455 20.512 59.488C18.6545 57.6306 17.6025 55.1168 17.5833 52.49C17.5641 49.8633 18.5793 47.3344 20.4094 45.45L24.225 41.8094C24.6602 41.3438 24.9011 40.7295 24.8985 40.0922C24.896 39.4549 24.6501 38.8426 24.2111 38.3805C23.7722 37.9184 23.1734 37.6414 22.537 37.6061C21.9007 37.5708 21.2748 37.7799 20.7875 38.1906L16.9344 41.8531C16.9201 41.8659 16.9065 41.8794 16.8938 41.8937C14.1185 44.7145 12.5704 48.5176 12.5865 52.4747C12.6026 56.4318 14.1817 60.2221 16.9798 63.0202C19.7779 65.8183 23.5682 67.3974 27.5253 67.4135C31.4824 67.4296 35.2855 65.8815 38.1063 63.1063C38.1206 63.0935 38.1341 63.0799 38.1469 63.0656L41.8094 59.225C42.0584 58.9923 42.2571 58.7111 42.3935 58.3988C42.5298 58.0864 42.6009 57.7495 42.6023 57.4087C42.6036 57.0679 42.5353 56.7304 42.4015 56.4169C42.2677 56.1035 42.0712 55.8207 41.8241 55.586C41.577 55.3513 41.2845 55.1695 40.9646 55.052C40.6447 54.9344 40.3041 54.8835 39.9639 54.9024C39.6236 54.9213 39.2907 55.0095 38.9858 55.1617C38.6808 55.3139 38.4103 55.5269 38.1906 55.7875V55.775ZM65 47.5H57.5C56.837 47.5 56.2011 47.7634 55.7322 48.2322C55.2634 48.7011 55 49.337 55 50C55 50.663 55.2634 51.2989 55.7322 51.7678C56.2011 52.2366 56.837 52.5 57.5 52.5H65C65.663 52.5 66.2989 52.2366 66.7678 51.7678C67.2366 51.2989 67.5 50.663 67.5 50C67.5 49.337 67.2366 48.7011 66.7678 48.2322C66.2989 47.7634 65.663 47.5 65 47.5ZM15 32.5H22.5C23.163 32.5 23.7989 32.2366 24.2678 31.7678C24.7366 31.2989 25 30.663 25 30C25 29.337 24.7366 28.7011 24.2678 28.2322C23.7989 27.7634 23.163 27.5 22.5 27.5H15C14.337 27.5 13.7011 27.7634 13.2322 28.2322C12.7634 28.7011 12.5 29.337 12.5 30C12.5 30.663 12.7634 31.2989 13.2322 31.7678C13.7011 32.2366 14.337 32.5 15 32.5ZM50 55C49.337 55 48.7011 55.2634 48.2322 55.7322C47.7634 56.2011 47.5 56.837 47.5 57.5V65C47.5 65.663 47.7634 66.2989 48.2322 66.7678C48.7011 67.2366 49.337 67.5 50 67.5C50.663 67.5 51.2989 67.2366 51.7678 66.7678C52.2366 66.2989 52.5 65.663 52.5 65V57.5C52.5 56.837 52.2366 56.2011 51.7678 55.7322C51.2989 55.2634 50.663 55 50 55ZM30 25C30.663 25 31.2989 24.7366 31.7678 24.2678C32.2366 23.7989 32.5 23.163 32.5 22.5V15C32.5 14.337 32.2366 13.7011 31.7678 13.2322C31.2989 12.7634 30.663 12.5 30 12.5C29.337 12.5 28.7011 12.7634 28.2322 13.2322C27.7634 13.7011 27.5 14.337 27.5 15V22.5C27.5 23.163 27.7634 23.7989 28.2322 24.2678C28.7011 24.7366 29.337 25 30 25Z" fill="#65D2AE"/>
</svg>
