<svg width="20" height="20" viewBox="0 0 20 20" fill="none" xmlns="http://www.w3.org/2000/svg">
<path d="M18.2454 11.1117C18.1652 11.0314 18.0647 10.9744 17.9546 10.9469C17.8445 10.9193 17.7289 10.9223 17.6204 10.9555C16.4286 11.3158 15.1615 11.346 13.9539 11.0429C12.7464 10.7398 11.6437 10.1148 10.7633 9.23442C9.88296 8.35406 9.25794 7.25136 8.95486 6.0438C8.65178 4.83625 8.68198 3.56909 9.04226 2.37735C9.0757 2.26875 9.0789 2.1531 9.05153 2.04282C9.02415 1.93255 8.96723 1.83182 8.88688 1.75148C8.80654 1.67113 8.70581 1.61421 8.59554 1.58683C8.48526 1.55946 8.36961 1.56266 8.26101 1.5961C6.61338 2.10082 5.1669 3.11234 4.12742 4.48672C3.21837 5.69364 2.66387 7.13014 2.52622 8.63482C2.38857 10.1395 2.67323 11.6528 3.34821 13.0046C4.02319 14.3564 5.06175 15.4933 6.34721 16.2874C7.63267 17.0815 9.11411 17.5014 10.6251 17.5C12.3878 17.5054 14.1037 16.9324 15.5095 15.8688C16.8838 14.8293 17.8954 13.3828 18.4001 11.7352C18.4331 11.627 18.4362 11.5118 18.409 11.402C18.3817 11.2923 18.3252 11.1919 18.2454 11.1117ZM14.7579 14.8703C13.4341 15.8674 11.7947 16.3527 10.1414 16.237C8.4882 16.1212 6.93242 15.4121 5.7605 14.2403C4.58857 13.0685 3.87939 11.5128 3.76349 9.85953C3.6476 8.2063 4.13279 6.56685 5.12976 5.24297C5.7793 4.38521 6.61903 3.68988 7.58289 3.21172C7.52798 3.59705 7.50031 3.98578 7.50008 4.375C7.50235 6.52919 8.35911 8.59449 9.88235 10.1177C11.4056 11.641 13.4709 12.4977 15.6251 12.5C16.0151 12.4999 16.4046 12.4722 16.7907 12.4172C16.3121 13.3812 15.6162 14.221 14.7579 14.8703Z" fill="#65D2AE"/>
</svg>
