<svg width="441" height="77" viewBox="0 0 441 77" fill="none" xmlns="http://www.w3.org/2000/svg">
<path d="M26.024 22.432C32.424 22.432 37.608 24.384 41.576 28.288C45.544 32.128 47.528 37.696 47.528 44.992V76H38.888V46.24C38.888 40.992 37.576 36.992 34.952 34.24C32.328 31.424 28.744 30.016 24.2 30.016C19.592 30.016 15.912 31.456 13.16 34.336C10.472 37.216 9.128 41.408 9.128 46.912V76H0.392001V23.392H9.128V30.88C10.856 28.192 13.192 26.112 16.136 24.64C19.144 23.168 22.44 22.432 26.024 22.432ZM58.5343 49.504C58.5343 44.128 59.6223 39.424 61.7983 35.392C63.9743 31.296 66.9503 28.128 70.7263 25.888C74.5663 23.648 78.8223 22.528 83.4943 22.528C88.1023 22.528 92.1023 23.52 95.4943 25.504C98.8863 27.488 101.414 29.984 103.078 32.992V23.392H111.91V76H103.078V66.208C101.35 69.28 98.7583 71.84 95.3023 73.888C91.9103 75.872 87.9423 76.864 83.3983 76.864C78.7263 76.864 74.5023 75.712 70.7263 73.408C66.9503 71.104 63.9743 67.872 61.7983 63.712C59.6223 59.552 58.5343 54.816 58.5343 49.504ZM103.078 49.6C103.078 45.632 102.278 42.176 100.678 39.232C99.0783 36.288 96.9023 34.048 94.1503 32.512C91.4623 30.912 88.4863 30.112 85.2223 30.112C81.9583 30.112 78.9823 30.88 76.2943 32.416C73.6063 33.952 71.4623 36.192 69.8623 39.136C68.2623 42.08 67.4623 45.536 67.4623 49.504C67.4623 53.536 68.2623 57.056 69.8623 60.064C71.4623 63.008 73.6063 65.28 76.2943 66.88C78.9823 68.416 81.9583 69.184 85.2223 69.184C88.4863 69.184 91.4623 68.416 94.1503 66.88C96.9023 65.28 99.0783 63.008 100.678 60.064C102.278 57.056 103.078 53.568 103.078 49.6Z" fill="#65D2AE"/>
<path d="M152.305 22.432C158.705 22.432 163.889 24.384 167.857 28.288C171.825 32.128 173.809 37.696 173.809 44.992V76H165.169V46.24C165.169 40.992 163.857 36.992 161.233 34.24C158.609 31.424 155.025 30.016 150.481 30.016C145.873 30.016 142.193 31.456 139.441 34.336C136.753 37.216 135.409 41.408 135.409 46.912V76H126.673V23.392H135.409V30.88C137.137 28.192 139.473 26.112 142.417 24.64C145.425 23.168 148.721 22.432 152.305 22.432ZM211.024 76.864C206.096 76.864 201.616 75.744 197.584 73.504C193.616 71.264 190.48 68.096 188.176 64C185.936 59.84 184.816 55.04 184.816 49.6C184.816 44.224 185.968 39.488 188.272 35.392C190.64 31.232 193.84 28.064 197.872 25.888C201.904 23.648 206.416 22.528 211.408 22.528C216.4 22.528 220.912 23.648 224.944 25.888C228.976 28.064 232.144 31.2 234.448 35.296C236.816 39.392 238 44.16 238 49.6C238 55.04 236.784 59.84 234.352 64C231.984 68.096 228.752 71.264 224.656 73.504C220.56 75.744 216.016 76.864 211.024 76.864ZM211.024 69.184C214.16 69.184 217.104 68.448 219.856 66.976C222.608 65.504 224.816 63.296 226.48 60.352C228.208 57.408 229.072 53.824 229.072 49.6C229.072 45.376 228.24 41.792 226.576 38.848C224.912 35.904 222.736 33.728 220.048 32.32C217.36 30.848 214.448 30.112 211.312 30.112C208.112 30.112 205.168 30.848 202.48 32.32C199.856 33.728 197.744 35.904 196.144 38.848C194.544 41.792 193.744 45.376 193.744 49.6C193.744 53.888 194.512 57.504 196.048 60.448C197.648 63.392 199.76 65.6 202.384 67.072C205.008 68.48 207.888 69.184 211.024 69.184ZM260.142 30.592V61.6C260.142 64.16 260.686 65.984 261.774 67.072C262.862 68.096 264.75 68.608 267.438 68.608H273.87V76H265.998C261.134 76 257.486 74.88 255.054 72.64C252.622 70.4 251.406 66.72 251.406 61.6V30.592H244.59V23.392H251.406V10.144H260.142V23.392H273.87V30.592H260.142ZM293.191 23.392V76H284.455V23.392H293.191ZM298.183 8.512L277.735 19.456V12.928L298.183 0.927994V8.512ZM304.816 49.6C304.816 44.16 305.904 39.424 308.08 35.392C310.256 31.296 313.264 28.128 317.104 25.888C321.008 23.648 325.456 22.528 330.448 22.528C336.912 22.528 342.224 24.096 346.384 27.232C350.608 30.368 353.392 34.72 354.736 40.288H345.328C344.432 37.088 342.672 34.56 340.048 32.704C337.488 30.848 334.288 29.92 330.448 29.92C325.456 29.92 321.424 31.648 318.352 35.104C315.28 38.496 313.744 43.328 313.744 49.6C313.744 55.936 315.28 60.832 318.352 64.288C321.424 67.744 325.456 69.472 330.448 69.472C334.288 69.472 337.488 68.576 340.048 66.784C342.608 64.992 344.368 62.432 345.328 59.104H354.736C353.328 64.48 350.512 68.8 346.288 72.064C342.064 75.264 336.784 76.864 330.448 76.864C325.456 76.864 321.008 75.744 317.104 73.504C313.264 71.264 310.256 68.096 308.08 64C305.904 59.904 304.816 55.104 304.816 49.6ZM370.904 14.848C369.24 14.848 367.832 14.272 366.68 13.12C365.528 11.968 364.952 10.56 364.952 8.89599C364.952 7.232 365.528 5.824 366.68 4.672C367.832 3.52 369.24 2.944 370.904 2.944C372.504 2.944 373.848 3.52 374.936 4.672C376.088 5.824 376.664 7.232 376.664 8.89599C376.664 10.56 376.088 11.968 374.936 13.12C373.848 14.272 372.504 14.848 370.904 14.848ZM375.128 23.392V76H366.392V23.392H375.128ZM386.753 49.504C386.753 44.128 387.841 39.424 390.017 35.392C392.193 31.296 395.169 28.128 398.945 25.888C402.785 23.648 407.041 22.528 411.713 22.528C416.321 22.528 420.321 23.52 423.713 25.504C427.105 27.488 429.633 29.984 431.297 32.992V23.392H440.129V76H431.297V66.208C429.569 69.28 426.977 71.84 423.521 73.888C420.129 75.872 416.161 76.864 411.617 76.864C406.945 76.864 402.721 75.712 398.945 73.408C395.169 71.104 392.193 67.872 390.017 63.712C387.841 59.552 386.753 54.816 386.753 49.504ZM431.297 49.6C431.297 45.632 430.497 42.176 428.897 39.232C427.297 36.288 425.121 34.048 422.369 32.512C419.681 30.912 416.705 30.112 413.441 30.112C410.177 30.112 407.201 30.88 404.513 32.416C401.825 33.952 399.681 36.192 398.081 39.136C396.481 42.08 395.681 45.536 395.681 49.504C395.681 53.536 396.481 57.056 398.081 60.064C399.681 63.008 401.825 65.28 404.513 66.88C407.201 68.416 410.177 69.184 413.441 69.184C416.705 69.184 419.681 68.416 422.369 66.88C425.121 65.28 427.297 63.008 428.897 60.064C430.497 57.056 431.297 53.568 431.297 49.6Z" fill="#213249"/>
</svg>
