<svg xmlns="http://www.w3.org/2000/svg" xmlns:xlink="http://www.w3.org/1999/xlink" width="500" zoomAndPan="magnify" viewBox="0 0 375 89.999999" height="120" preserveAspectRatio="xMidYMid meet" version="1.0"><defs><g/></defs><g fill="#8c52ff" fill-opacity="1"><g transform="translate(14.69721, 63.841585)"><g><path d="M 19.5625 -34.484375 C 20.601562 -34.484375 21.289062 -34.140625 21.625 -33.453125 C 21.96875 -32.773438 21.96875 -32.082031 21.625 -31.375 C 21.289062 -30.675781 20.601562 -30.328125 19.5625 -30.328125 L 12.125 -30.328125 L 12.125 -11.78125 C 12.125 -10.507812 12.238281 -9.257812 12.46875 -8.03125 C 12.695312 -6.8125 13.1875 -5.800781 13.9375 -5 C 14.6875 -4.207031 15.832031 -3.8125 17.375 -3.8125 C 17.875 -3.8125 18.453125 -3.890625 19.109375 -4.046875 C 19.765625 -4.210938 20.253906 -4.382812 20.578125 -4.5625 C 21.304688 -4.96875 21.953125 -5.066406 22.515625 -4.859375 C 23.085938 -4.660156 23.519531 -4.300781 23.8125 -3.78125 C 24.113281 -3.257812 24.179688 -2.679688 24.015625 -2.046875 C 23.859375 -1.410156 23.394531 -0.890625 22.625 -0.484375 C 21.757812 -0.0234375 20.894531 0.28125 20.03125 0.4375 C 19.164062 0.601562 18.28125 0.6875 17.375 0.6875 C 14.644531 0.6875 12.550781 0.0976562 11.09375 -1.078125 C 9.644531 -2.265625 8.632812 -3.8125 8.0625 -5.71875 C 7.5 -7.625 7.21875 -9.644531 7.21875 -11.78125 L 7.21875 -30.328125 L 2.71875 -30.328125 C 1.675781 -30.328125 0.984375 -30.675781 0.640625 -31.375 C 0.304688 -32.082031 0.316406 -32.773438 0.671875 -33.453125 C 1.035156 -34.140625 1.71875 -34.484375 2.71875 -34.484375 L 7.21875 -34.484375 L 7.21875 -42.59375 C 7.21875 -43.40625 7.46875 -44.015625 7.96875 -44.421875 C 8.46875 -44.835938 9.035156 -45.046875 9.671875 -45.046875 C 10.304688 -45.046875 10.875 -44.835938 11.375 -44.421875 C 11.875 -44.015625 12.125 -43.40625 12.125 -42.59375 L 12.125 -34.484375 Z M 19.5625 -34.484375 "/></g></g></g><g fill="#8c52ff" fill-opacity="1"><g transform="translate(38.3398, 63.841585)"><g><path d="M 38.015625 -17.4375 C 38.015625 -16.71875 37.8125 -16.015625 37.40625 -15.328125 C 37 -14.648438 36.09375 -14.3125 34.6875 -14.3125 L 7.765625 -14.3125 C 8.085938 -12.445312 8.789062 -10.71875 9.875 -9.125 C 10.96875 -7.539062 12.398438 -6.269531 14.171875 -5.3125 C 15.941406 -4.363281 17.960938 -3.890625 20.234375 -3.890625 C 21.828125 -3.890625 23.40625 -4.113281 24.96875 -4.5625 C 26.539062 -5.019531 27.984375 -5.75 29.296875 -6.75 C 29.890625 -7.289062 30.515625 -7.550781 31.171875 -7.53125 C 31.828125 -7.507812 32.382812 -7.304688 32.84375 -6.921875 C 33.300781 -6.535156 33.539062 -6.019531 33.5625 -5.375 C 33.582031 -4.738281 33.253906 -4.082031 32.578125 -3.40625 C 31.023438 -1.945312 29.171875 -0.890625 27.015625 -0.234375 C 24.859375 0.421875 22.664062 0.726562 20.4375 0.6875 C 16.851562 0.6875 13.734375 -0.109375 11.078125 -1.703125 C 8.421875 -3.296875 6.363281 -5.453125 4.90625 -8.171875 C 3.445312 -10.898438 2.71875 -13.96875 2.71875 -17.375 C 2.71875 -21.238281 3.554688 -24.488281 5.234375 -27.125 C 6.921875 -29.757812 9.09375 -31.753906 11.75 -33.109375 C 14.40625 -34.472656 17.1875 -35.15625 20.09375 -35.15625 C 23.1875 -35.15625 26.082031 -34.53125 28.78125 -33.28125 C 31.488281 -32.03125 33.691406 -30.109375 35.390625 -27.515625 C 37.097656 -24.929688 37.972656 -21.570312 38.015625 -17.4375 Z M 7.5625 -18.46875 L 33.25 -18.46875 C 33.019531 -21.1875 32.242188 -23.441406 30.921875 -25.234375 C 29.609375 -27.035156 28.007812 -28.367188 26.125 -29.234375 C 24.238281 -30.097656 22.34375 -30.53125 20.4375 -30.53125 C 18.300781 -30.53125 16.289062 -30.097656 14.40625 -29.234375 C 12.519531 -28.367188 10.960938 -27.035156 9.734375 -25.234375 C 8.515625 -23.441406 7.789062 -21.1875 7.5625 -18.46875 Z M 7.5625 -18.46875 "/></g></g></g><g fill="#8c52ff" fill-opacity="1"><g transform="translate(77.926176, 63.841585)"><g><path d="M 29.171875 -26.640625 C 27.890625 -28.097656 26.441406 -29.144531 24.828125 -29.78125 C 23.222656 -30.414062 21.578125 -30.734375 19.890625 -30.734375 C 17.441406 -30.734375 15.296875 -30.128906 13.453125 -28.921875 C 11.617188 -27.722656 10.1875 -26.097656 9.15625 -24.046875 C 8.132812 -22.003906 7.625 -19.710938 7.625 -17.171875 C 7.625 -14.765625 8.132812 -12.535156 9.15625 -10.484375 C 10.1875 -8.441406 11.644531 -6.816406 13.53125 -5.609375 C 15.414062 -4.410156 17.601562 -3.8125 20.09375 -3.8125 C 21.875 -3.8125 23.660156 -4.175781 25.453125 -4.90625 C 27.242188 -5.632812 28.726562 -6.789062 29.90625 -8.375 C 30.320312 -8.925781 30.820312 -9.210938 31.40625 -9.234375 C 32 -9.253906 32.546875 -9.082031 33.046875 -8.71875 C 33.546875 -8.351562 33.851562 -7.875 33.96875 -7.28125 C 34.082031 -6.695312 33.867188 -6.085938 33.328125 -5.453125 C 31.691406 -3.453125 29.691406 -1.925781 27.328125 -0.875 C 24.960938 0.164062 22.53125 0.6875 20.03125 0.6875 C 16.625 0.6875 13.613281 -0.109375 11 -1.703125 C 8.394531 -3.296875 6.351562 -5.453125 4.875 -8.171875 C 3.394531 -10.898438 2.65625 -13.945312 2.65625 -17.3125 C 2.65625 -19.03125 2.9375 -20.910156 3.5 -22.953125 C 4.070312 -25.003906 5.039062 -26.960938 6.40625 -28.828125 C 7.769531 -30.691406 9.585938 -32.210938 11.859375 -33.390625 C 14.128906 -34.566406 16.96875 -35.15625 20.375 -35.15625 C 22.78125 -35.15625 24.984375 -34.710938 26.984375 -33.828125 C 28.984375 -32.941406 30.890625 -31.476562 32.703125 -29.4375 C 33.203125 -28.894531 33.382812 -28.347656 33.25 -27.796875 C 33.113281 -27.253906 32.804688 -26.789062 32.328125 -26.40625 C 31.859375 -26.019531 31.328125 -25.828125 30.734375 -25.828125 C 30.140625 -25.828125 29.617188 -26.097656 29.171875 -26.640625 Z M 29.171875 -26.640625 "/></g></g></g><g fill="#8c52ff" fill-opacity="1"><g transform="translate(111.99355, 63.841585)"><g><path d="M 32.984375 -19.890625 C 32.984375 -21.984375 32.484375 -23.820312 31.484375 -25.40625 C 30.484375 -27 29.1875 -28.25 27.59375 -29.15625 C 26.007812 -30.070312 24.285156 -30.53125 22.421875 -30.53125 C 20.234375 -30.53125 18.160156 -30.039062 16.203125 -29.0625 C 14.253906 -28.082031 12.664062 -26.726562 11.4375 -25 C 10.21875 -23.28125 9.609375 -21.238281 9.609375 -18.875 L 9.609375 -2.453125 C 9.609375 -0.816406 8.789062 0 7.15625 0 C 6.382812 0 5.757812 -0.222656 5.28125 -0.671875 C 4.800781 -1.128906 4.5625 -1.722656 4.5625 -2.453125 L 4.5625 -43.34375 C 4.5625 -44.0625 4.820312 -44.601562 5.34375 -44.96875 C 5.863281 -45.332031 6.445312 -45.515625 7.09375 -45.515625 C 7.726562 -45.515625 8.304688 -45.332031 8.828125 -44.96875 C 9.347656 -44.601562 9.609375 -44.0625 9.609375 -43.34375 L 9.609375 -28.421875 C 10.835938 -30.828125 12.65625 -32.550781 15.0625 -33.59375 C 17.46875 -34.632812 19.941406 -35.15625 22.484375 -35.15625 C 25.117188 -35.15625 27.617188 -34.566406 29.984375 -33.390625 C 32.347656 -32.210938 34.265625 -30.484375 35.734375 -28.203125 C 37.210938 -25.929688 37.953125 -23.160156 37.953125 -19.890625 L 37.953125 -2.453125 C 37.953125 -0.816406 37.132812 0 35.5 0 C 34.769531 0 34.164062 -0.222656 33.6875 -0.671875 C 33.21875 -1.128906 32.984375 -1.722656 32.984375 -2.453125 Z M 32.984375 -19.890625 "/></g></g></g><g fill="#373643" fill-opacity="1"><g transform="translate(153.360737, 63.841585)"><g><path d="M 32.984375 -19.890625 C 32.984375 -21.984375 32.484375 -23.820312 31.484375 -25.40625 C 30.484375 -27 29.1875 -28.25 27.59375 -29.15625 C 26.007812 -30.070312 24.285156 -30.53125 22.421875 -30.53125 C 20.234375 -30.53125 18.160156 -29.972656 16.203125 -28.859375 C 14.253906 -27.742188 12.664062 -26.21875 11.4375 -24.28125 C 10.21875 -22.351562 9.609375 -20.140625 9.609375 -17.640625 L 9.609375 -2.390625 C 9.609375 -0.796875 8.789062 0 7.15625 0 C 6.382812 0 5.757812 -0.210938 5.28125 -0.640625 C 4.800781 -1.078125 4.5625 -1.660156 4.5625 -2.390625 L 4.5625 -32.09375 C 4.5625 -32.863281 4.820312 -33.453125 5.34375 -33.859375 C 5.863281 -34.273438 6.421875 -34.484375 7.015625 -34.484375 C 7.648438 -34.484375 8.21875 -34.273438 8.71875 -33.859375 C 9.21875 -33.453125 9.46875 -32.84375 9.46875 -32.03125 L 9.46875 -28.078125 C 10.695312 -30.578125 12.515625 -32.378906 14.921875 -33.484375 C 17.328125 -34.597656 19.847656 -35.15625 22.484375 -35.15625 C 25.117188 -35.15625 27.617188 -34.566406 29.984375 -33.390625 C 32.347656 -32.210938 34.265625 -30.484375 35.734375 -28.203125 C 37.210938 -25.929688 37.953125 -23.160156 37.953125 -19.890625 L 37.953125 -2.390625 C 37.953125 -0.796875 37.132812 0 35.5 0 C 34.769531 0 34.164062 -0.210938 33.6875 -0.640625 C 33.21875 -1.078125 32.984375 -1.660156 32.984375 -2.390625 Z M 32.984375 -19.890625 "/></g></g></g><g fill="#373643" fill-opacity="1"><g transform="translate(194.718631, 63.841585)"><g><path d="M 20.234375 0.6875 C 16.648438 0.6875 13.515625 -0.140625 10.828125 -1.796875 C 8.148438 -3.460938 6.082031 -5.691406 4.625 -8.484375 C 3.175781 -11.273438 2.453125 -14.351562 2.453125 -17.71875 C 2.453125 -21.03125 3.222656 -23.992188 4.765625 -26.609375 C 6.316406 -29.222656 8.429688 -31.300781 11.109375 -32.84375 C 13.785156 -34.382812 16.828125 -35.15625 20.234375 -35.15625 C 23.691406 -35.15625 26.757812 -34.347656 29.4375 -32.734375 C 32.113281 -31.128906 34.210938 -28.984375 35.734375 -26.296875 C 37.253906 -23.617188 38.015625 -20.644531 38.015625 -17.375 C 38.015625 -13.925781 37.242188 -10.835938 35.703125 -8.109375 C 34.160156 -5.378906 32.0625 -3.226562 29.40625 -1.65625 C 26.75 -0.09375 23.691406 0.6875 20.234375 0.6875 Z M 20.171875 -30.53125 C 17.992188 -30.53125 15.9375 -30.03125 14 -29.03125 C 12.070312 -28.03125 10.503906 -26.539062 9.296875 -24.5625 C 8.097656 -22.582031 7.5 -20.117188 7.5 -17.171875 C 7.5 -14.765625 8.03125 -12.5625 9.09375 -10.5625 C 10.164062 -8.5625 11.65625 -6.96875 13.5625 -5.78125 C 15.46875 -4.601562 17.691406 -4.015625 20.234375 -4.015625 C 22.773438 -4.015625 25.007812 -4.628906 26.9375 -5.859375 C 28.875 -7.085938 30.375 -8.6875 31.4375 -10.65625 C 32.507812 -12.632812 33.046875 -14.757812 33.046875 -17.03125 C 33.046875 -20.125 32.421875 -22.65625 31.171875 -24.625 C 29.921875 -26.601562 28.304688 -28.082031 26.328125 -29.0625 C 24.359375 -30.039062 22.304688 -30.53125 20.171875 -30.53125 Z M 20.171875 -30.53125 "/></g></g></g><g fill="#373643" fill-opacity="1"><g transform="translate(233.623644, 63.841585)"><g><path d="M 19.5625 -34.484375 C 20.601562 -34.484375 21.289062 -34.140625 21.625 -33.453125 C 21.96875 -32.773438 21.96875 -32.082031 21.625 -31.375 C 21.289062 -30.675781 20.601562 -30.328125 19.5625 -30.328125 L 12.125 -30.328125 L 12.125 -11.78125 C 12.125 -10.507812 12.238281 -9.257812 12.46875 -8.03125 C 12.695312 -6.8125 13.1875 -5.800781 13.9375 -5 C 14.6875 -4.207031 15.832031 -3.8125 17.375 -3.8125 C 17.875 -3.8125 18.453125 -3.890625 19.109375 -4.046875 C 19.765625 -4.210938 20.253906 -4.382812 20.578125 -4.5625 C 21.304688 -4.96875 21.953125 -5.066406 22.515625 -4.859375 C 23.085938 -4.660156 23.519531 -4.300781 23.8125 -3.78125 C 24.113281 -3.257812 24.179688 -2.679688 24.015625 -2.046875 C 23.859375 -1.410156 23.394531 -0.890625 22.625 -0.484375 C 21.757812 -0.0234375 20.894531 0.28125 20.03125 0.4375 C 19.164062 0.601562 18.28125 0.6875 17.375 0.6875 C 14.644531 0.6875 12.550781 0.0976562 11.09375 -1.078125 C 9.644531 -2.265625 8.632812 -3.8125 8.0625 -5.71875 C 7.5 -7.625 7.21875 -9.644531 7.21875 -11.78125 L 7.21875 -30.328125 L 2.71875 -30.328125 C 1.675781 -30.328125 0.984375 -30.675781 0.640625 -31.375 C 0.304688 -32.082031 0.316406 -32.773438 0.671875 -33.453125 C 1.035156 -34.140625 1.71875 -34.484375 2.71875 -34.484375 L 7.21875 -34.484375 L 7.21875 -42.59375 C 7.21875 -43.40625 7.46875 -44.015625 7.96875 -44.421875 C 8.46875 -44.835938 9.035156 -45.046875 9.671875 -45.046875 C 10.304688 -45.046875 10.875 -44.835938 11.375 -44.421875 C 11.875 -44.015625 12.125 -43.40625 12.125 -42.59375 L 12.125 -34.484375 Z M 19.5625 -34.484375 "/></g></g></g><g fill="#373643" fill-opacity="1"><g transform="translate(257.266237, 63.841585)"><g><path d="M 4.21875 -41.84375 L 9 -48.171875 C 9.5 -48.859375 10.066406 -49.234375 10.703125 -49.296875 C 11.335938 -49.367188 11.878906 -49.234375 12.328125 -48.890625 C 12.785156 -48.546875 13.046875 -48.066406 13.109375 -47.453125 C 13.179688 -46.847656 12.898438 -46.203125 12.265625 -45.515625 L 7.296875 -40.140625 C 6.660156 -39.453125 6.007812 -39.140625 5.34375 -39.203125 C 4.6875 -39.273438 4.222656 -39.570312 3.953125 -40.09375 C 3.679688 -40.625 3.769531 -41.207031 4.21875 -41.84375 Z M 3.953125 -32.234375 C 3.953125 -33.003906 4.222656 -33.570312 4.765625 -33.9375 C 5.316406 -34.300781 5.882812 -34.484375 6.46875 -34.484375 C 7.101562 -34.484375 7.671875 -34.300781 8.171875 -33.9375 C 8.671875 -33.570312 8.921875 -33.023438 8.921875 -32.296875 L 8.921875 -2.25 C 8.921875 -1.519531 8.671875 -0.960938 8.171875 -0.578125 C 7.671875 -0.191406 7.101562 0 6.46875 0 C 5.832031 0 5.253906 -0.191406 4.734375 -0.578125 C 4.210938 -0.960938 3.953125 -1.519531 3.953125 -2.25 Z M 3.953125 -32.234375 "/></g></g></g><g fill="#373643" fill-opacity="1"><g transform="translate(268.303704, 63.841585)"><g><path d="M 29.171875 -26.640625 C 27.890625 -28.097656 26.441406 -29.144531 24.828125 -29.78125 C 23.222656 -30.414062 21.578125 -30.734375 19.890625 -30.734375 C 17.441406 -30.734375 15.296875 -30.128906 13.453125 -28.921875 C 11.617188 -27.722656 10.1875 -26.097656 9.15625 -24.046875 C 8.132812 -22.003906 7.625 -19.710938 7.625 -17.171875 C 7.625 -14.765625 8.132812 -12.535156 9.15625 -10.484375 C 10.1875 -8.441406 11.644531 -6.816406 13.53125 -5.609375 C 15.414062 -4.410156 17.601562 -3.8125 20.09375 -3.8125 C 21.875 -3.8125 23.660156 -4.175781 25.453125 -4.90625 C 27.242188 -5.632812 28.726562 -6.789062 29.90625 -8.375 C 30.320312 -8.925781 30.820312 -9.210938 31.40625 -9.234375 C 32 -9.253906 32.546875 -9.082031 33.046875 -8.71875 C 33.546875 -8.351562 33.851562 -7.875 33.96875 -7.28125 C 34.082031 -6.695312 33.867188 -6.085938 33.328125 -5.453125 C 31.691406 -3.453125 29.691406 -1.925781 27.328125 -0.875 C 24.960938 0.164062 22.53125 0.6875 20.03125 0.6875 C 16.625 0.6875 13.613281 -0.109375 11 -1.703125 C 8.394531 -3.296875 6.351562 -5.453125 4.875 -8.171875 C 3.394531 -10.898438 2.65625 -13.945312 2.65625 -17.3125 C 2.65625 -19.03125 2.9375 -20.910156 3.5 -22.953125 C 4.070312 -25.003906 5.039062 -26.960938 6.40625 -28.828125 C 7.769531 -30.691406 9.585938 -32.210938 11.859375 -33.390625 C 14.128906 -34.566406 16.96875 -35.15625 20.375 -35.15625 C 22.78125 -35.15625 24.984375 -34.710938 26.984375 -33.828125 C 28.984375 -32.941406 30.890625 -31.476562 32.703125 -29.4375 C 33.203125 -28.894531 33.382812 -28.347656 33.25 -27.796875 C 33.113281 -27.253906 32.804688 -26.789062 32.328125 -26.40625 C 31.859375 -26.019531 31.328125 -25.828125 30.734375 -25.828125 C 30.140625 -25.828125 29.617188 -26.097656 29.171875 -26.640625 Z M 29.171875 -26.640625 "/></g></g></g><g fill="#373643" fill-opacity="1"><g transform="translate(302.371077, 63.841585)"><g><path d="M 9.0625 -42.796875 C 9.0625 -42.023438 8.785156 -41.441406 8.234375 -41.046875 C 7.691406 -40.660156 7.101562 -40.46875 6.46875 -40.46875 C 5.882812 -40.46875 5.316406 -40.660156 4.765625 -41.046875 C 4.222656 -41.441406 3.953125 -42.023438 3.953125 -42.796875 L 3.953125 -43.140625 C 3.953125 -43.910156 4.222656 -44.5 4.765625 -44.90625 C 5.316406 -45.3125 5.910156 -45.515625 6.546875 -45.515625 C 7.179688 -45.515625 7.757812 -45.3125 8.28125 -44.90625 C 8.800781 -44.5 9.0625 -43.910156 9.0625 -43.140625 Z M 4.015625 -32.234375 C 4.015625 -33.003906 4.285156 -33.570312 4.828125 -33.9375 C 5.378906 -34.300781 5.953125 -34.484375 6.546875 -34.484375 C 7.179688 -34.484375 7.75 -34.300781 8.25 -33.9375 C 8.75 -33.570312 9 -33.023438 9 -32.296875 L 9 -2.25 C 9 -1.519531 8.75 -0.960938 8.25 -0.578125 C 7.75 -0.191406 7.179688 0 6.546875 0 C 5.910156 0 5.328125 -0.191406 4.796875 -0.578125 C 4.273438 -0.960938 4.015625 -1.519531 4.015625 -2.25 Z M 4.015625 -32.234375 "/></g></g></g><g fill="#373643" fill-opacity="1"><g transform="translate(313.544819, 63.841585)"><g><path d="M 20.171875 -35.15625 C 22.117188 -35.15625 24.09375 -34.757812 26.09375 -33.96875 C 28.09375 -33.175781 29.707031 -31.78125 30.9375 -29.78125 L 30.9375 -32.03125 C 30.9375 -32.75 31.148438 -33.335938 31.578125 -33.796875 C 32.015625 -34.253906 32.617188 -34.484375 33.390625 -34.484375 C 34.160156 -34.484375 34.769531 -34.253906 35.21875 -33.796875 C 35.675781 -33.335938 35.90625 -32.75 35.90625 -32.03125 L 35.90625 -2.453125 C 35.90625 -1.722656 35.675781 -1.128906 35.21875 -0.671875 C 34.769531 -0.222656 34.160156 0 33.390625 0 C 31.753906 0 30.9375 -0.816406 30.9375 -2.453125 L 30.9375 -5.390625 C 30.300781 -4.066406 29.367188 -2.953125 28.140625 -2.046875 C 26.910156 -1.140625 25.566406 -0.457031 24.109375 0 C 22.660156 0.457031 21.253906 0.6875 19.890625 0.6875 C 16.617188 0.6875 13.664062 -0.0351562 11.03125 -1.484375 C 8.40625 -2.941406 6.316406 -5.019531 4.765625 -7.71875 C 3.222656 -10.425781 2.453125 -13.664062 2.453125 -17.4375 C 2.453125 -21.34375 3.257812 -24.601562 4.875 -27.21875 C 6.488281 -29.832031 8.632812 -31.804688 11.3125 -33.140625 C 13.988281 -34.484375 16.941406 -35.15625 20.171875 -35.15625 Z M 19.96875 -4.015625 C 21.96875 -4.109375 23.796875 -4.5625 25.453125 -5.375 C 27.109375 -6.195312 28.4375 -7.378906 29.4375 -8.921875 C 30.4375 -10.472656 30.9375 -12.335938 30.9375 -14.515625 L 30.9375 -19.890625 C 30.9375 -23.253906 29.898438 -25.820312 27.828125 -27.59375 C 25.765625 -29.363281 23.1875 -30.316406 20.09375 -30.453125 C 17.375 -30.503906 15.070312 -29.925781 13.1875 -28.71875 C 11.300781 -27.519531 9.867188 -25.921875 8.890625 -23.921875 C 7.910156 -21.921875 7.421875 -19.757812 7.421875 -17.4375 C 7.421875 -14.945312 7.851562 -12.847656 8.71875 -11.140625 C 9.582031 -9.429688 10.679688 -8.054688 12.015625 -7.015625 C 13.359375 -5.972656 14.742188 -5.210938 16.171875 -4.734375 C 17.609375 -4.253906 18.875 -4.015625 19.96875 -4.015625 Z M 19.96875 -4.015625 "/></g></g></g></svg>