<svg width="300" height="180" viewBox="0 0 300 180" fill="none" xmlns="http://www.w3.org/2000/svg">
<path d="M101.444 84.608C103.044 84.608 104.34 85.096 105.332 86.072C106.324 87.032 106.82 88.424 106.82 90.248V98H104.66V90.56C104.66 89.248 104.332 88.248 103.676 87.56C103.02 86.856 102.124 86.504 100.988 86.504C99.8355 86.504 98.9155 86.864 98.2275 87.584C97.5555 88.304 97.2195 89.352 97.2195 90.728V98H95.0355V84.848H97.2195V86.72C97.6515 86.048 98.2355 85.528 98.9715 85.16C99.7235 84.792 100.548 84.608 101.444 84.608ZM109.571 91.376C109.571 90.032 109.843 88.856 110.387 87.848C110.931 86.824 111.675 86.032 112.619 85.472C113.579 84.912 114.643 84.632 115.811 84.632C116.963 84.632 117.963 84.88 118.811 85.376C119.659 85.872 120.291 86.496 120.707 87.248V84.848H122.915V98H120.707V95.552C120.275 96.32 119.627 96.96 118.763 97.472C117.915 97.968 116.923 98.216 115.787 98.216C114.619 98.216 113.563 97.928 112.619 97.352C111.675 96.776 110.931 95.968 110.387 94.928C109.843 93.888 109.571 92.704 109.571 91.376ZM120.707 91.4C120.707 90.408 120.507 89.544 120.107 88.808C119.707 88.072 119.163 87.512 118.475 87.128C117.803 86.728 117.059 86.528 116.243 86.528C115.427 86.528 114.683 86.72 114.011 87.104C113.339 87.488 112.803 88.048 112.403 88.784C112.003 89.52 111.803 90.384 111.803 91.376C111.803 92.384 112.003 93.264 112.403 94.016C112.803 94.752 113.339 95.32 114.011 95.72C114.683 96.104 115.427 96.296 116.243 96.296C117.059 96.296 117.803 96.104 118.475 95.72C119.163 95.32 119.707 94.752 120.107 94.016C120.507 93.264 120.707 92.392 120.707 91.4Z" fill="#65D2AE"/>
<path d="M133.014 84.608C134.614 84.608 135.91 85.096 136.902 86.072C137.894 87.032 138.39 88.424 138.39 90.248V98H136.23V90.56C136.23 89.248 135.902 88.248 135.246 87.56C134.59 86.856 133.694 86.504 132.558 86.504C131.406 86.504 130.486 86.864 129.798 87.584C129.126 88.304 128.79 89.352 128.79 90.728V98H126.606V84.848H128.79V86.72C129.222 86.048 129.806 85.528 130.542 85.16C131.294 84.792 132.118 84.608 133.014 84.608ZM147.693 98.216C146.461 98.216 145.341 97.936 144.333 97.376C143.341 96.816 142.557 96.024 141.981 95C141.421 93.96 141.141 92.76 141.141 91.4C141.141 90.056 141.429 88.872 142.005 87.848C142.597 86.808 143.397 86.016 144.405 85.472C145.413 84.912 146.541 84.632 147.789 84.632C149.037 84.632 150.165 84.912 151.173 85.472C152.181 86.016 152.973 86.8 153.549 87.824C154.141 88.848 154.437 90.04 154.437 91.4C154.437 92.76 154.133 93.96 153.525 95C152.933 96.024 152.125 96.816 151.101 97.376C150.077 97.936 148.941 98.216 147.693 98.216ZM147.693 96.296C148.477 96.296 149.213 96.112 149.901 95.744C150.589 95.376 151.141 94.824 151.557 94.088C151.989 93.352 152.205 92.456 152.205 91.4C152.205 90.344 151.997 89.448 151.581 88.712C151.165 87.976 150.621 87.432 149.949 87.08C149.277 86.712 148.549 86.528 147.765 86.528C146.965 86.528 146.229 86.712 145.557 87.08C144.901 87.432 144.373 87.976 143.973 88.712C143.573 89.448 143.373 90.344 143.373 91.4C143.373 92.472 143.565 93.376 143.949 94.112C144.349 94.848 144.877 95.4 145.533 95.768C146.189 96.12 146.909 96.296 147.693 96.296ZM159.973 86.648V94.4C159.973 95.04 160.109 95.496 160.381 95.768C160.653 96.024 161.125 96.152 161.797 96.152H163.405V98H161.437C160.221 98 159.309 97.72 158.701 97.16C158.093 96.6 157.789 95.68 157.789 94.4V86.648H156.085V84.848H157.789V81.536H159.973V84.848H163.405V86.648H159.973ZM168.235 84.848V98H166.051V84.848H168.235ZM169.483 81.128L164.371 83.864V82.232L169.483 79.232V81.128ZM171.141 91.4C171.141 90.04 171.413 88.856 171.957 87.848C172.501 86.824 173.253 86.032 174.213 85.472C175.189 84.912 176.301 84.632 177.549 84.632C179.165 84.632 180.493 85.024 181.533 85.808C182.589 86.592 183.285 87.68 183.621 89.072H181.269C181.045 88.272 180.605 87.64 179.949 87.176C179.309 86.712 178.509 86.48 177.549 86.48C176.301 86.48 175.293 86.912 174.525 87.776C173.757 88.624 173.373 89.832 173.373 91.4C173.373 92.984 173.757 94.208 174.525 95.072C175.293 95.936 176.301 96.368 177.549 96.368C178.509 96.368 179.309 96.144 179.949 95.696C180.589 95.248 181.029 94.608 181.269 93.776H183.621C183.269 95.12 182.565 96.2 181.509 97.016C180.453 97.816 179.133 98.216 177.549 98.216C176.301 98.216 175.189 97.936 174.213 97.376C173.253 96.816 172.501 96.024 171.957 95C171.413 93.976 171.141 92.776 171.141 91.4ZM187.664 82.712C187.248 82.712 186.896 82.568 186.608 82.28C186.32 81.992 186.176 81.64 186.176 81.224C186.176 80.808 186.32 80.456 186.608 80.168C186.896 79.88 187.248 79.736 187.664 79.736C188.064 79.736 188.4 79.88 188.672 80.168C188.96 80.456 189.104 80.808 189.104 81.224C189.104 81.64 188.96 81.992 188.672 82.28C188.4 82.568 188.064 82.712 187.664 82.712ZM188.72 84.848V98H186.536V84.848H188.72ZM191.626 91.376C191.626 90.032 191.898 88.856 192.442 87.848C192.986 86.824 193.73 86.032 194.674 85.472C195.634 84.912 196.698 84.632 197.866 84.632C199.018 84.632 200.018 84.88 200.866 85.376C201.714 85.872 202.346 86.496 202.762 87.248V84.848H204.97V98H202.762V95.552C202.33 96.32 201.682 96.96 200.818 97.472C199.97 97.968 198.978 98.216 197.842 98.216C196.674 98.216 195.618 97.928 194.674 97.352C193.73 96.776 192.986 95.968 192.442 94.928C191.898 93.888 191.626 92.704 191.626 91.376ZM202.762 91.4C202.762 90.408 202.562 89.544 202.162 88.808C201.762 88.072 201.218 87.512 200.53 87.128C199.858 86.728 199.114 86.528 198.298 86.528C197.482 86.528 196.738 86.72 196.066 87.104C195.394 87.488 194.858 88.048 194.458 88.784C194.058 89.52 193.858 90.384 193.858 91.376C193.858 92.384 194.058 93.264 194.458 94.016C194.858 94.752 195.394 95.32 196.066 95.72C196.738 96.104 197.482 96.296 198.298 96.296C199.114 96.296 199.858 96.104 200.53 95.72C201.218 95.32 201.762 94.752 202.162 94.016C202.562 93.264 202.762 92.392 202.762 91.4Z" fill="#213249"/>
</svg>
